<?xml version="1.0" encoding="UTF-8" standalone="no"?>
<!-- [FORK] Tobasco bottle logo (vector trace of fork/app-icon/tobasco-bottle.png).
     Source of truth lives here; fork/scripts/generate-app-icon.mjs copies it to
     resources/logo.svg, which upstream components import. -->
<svg xmlns="http://www.w3.org/2000/svg" viewBox="395 346 470 1074" width="42" height="96">
  <path fill="#258b39" d="M606 366h48q6 0 6.5 6l11 156h-89l11-156q.5-6 6.5-6z"/>
  <rect fill="#258b39" x="578" y="528" width="104" height="34" rx="8"/>
  <rect fill="#258b39" x="522" y="560" width="216" height="152" rx="14"/>
  <rect fill="#c71411" x="512" y="712" width="236" height="26" rx="10"/>
  <path fill="#c71411" d="M544 738 L716 738 L716 760 C716 900 845 910 845 1040 L845 1360 Q845 1400 805 1400 L455 1400 Q415 1400 415 1360 L415 1040 C415 910 544 900 544 760 Z"/>
</svg>
